<svg width="54" height="54" viewBox="0 0 54 54" fill="none" xmlns="http://www.w3.org/2000/svg">
<circle cx="27" cy="27" r="27" fill="#FF6C8F"/>
<path d="M26.7407 36.3716C27.4399 36.3716 28.0542 35.8074 28.0542 35.083V28.2534H34.668C35.3791 28.2534 35.9731 27.6527 35.9731 26.9399C35.9731 26.2156 35.3758 25.6265 34.668 25.6265H28.0542V18.7886C28.0542 18.0642 27.4399 17.5 26.7407 17.5C26.0299 17.5 25.4272 18.0674 25.4272 18.7886V25.6265H18.8135C18.1123 25.6265 17.5 26.209 17.5 26.9399C17.5 27.6593 18.109 28.2534 18.8135 28.2534H25.4272V35.083C25.4272 35.8042 26.0299 36.3716 26.7407 36.3716Z" fill="white" stroke="white"/>
</svg>
