<svg width="58" height="41" viewBox="0 0 58 41" fill="none" xmlns="http://www.w3.org/2000/svg">
<g clip-path="url(#clip0)">
<path d="M29 22.582C34.9076 22.582 39.6967 17.7929 39.6967 11.8853C39.6967 5.97762 34.9076 1.18854 29 1.18854C23.0924 1.18854 18.3033 5.97762 18.3033 11.8853C18.3033 17.7929 23.0924 22.582 29 22.582Z" stroke="#FF6C8F" stroke-width="2" stroke-linecap="round" stroke-linejoin="round"/>
<path d="M18.3033 11.8853H39.6967" stroke="#FF6C8F" stroke-width="2" stroke-linecap="round" stroke-linejoin="round"/>
<path d="M29 1.18854C31.6756 4.11768 33.1961 7.91895 33.2787 11.8853C33.1961 15.8516 31.6756 19.6528 29 22.582C26.3245 19.6528 24.8039 15.8516 24.7213 11.8853C24.8039 7.91895 26.3245 4.11768 29 1.18854V1.18854Z" stroke="#FF6C8F" stroke-width="2" stroke-linecap="round" stroke-linejoin="round"/>
</g>
<path d="M8.07564 37.6721H13.7859V36.3468H9.65661V33.9647H13.4577V32.6394H9.65661V30.2701H13.7518V28.9448H8.07564V37.6721ZM16.5579 31.1267H14.9215L16.8647 34.3994L14.8704 37.6721H16.5067L17.8789 35.3156L19.2638 37.6721H20.8874L18.8803 34.3994L20.8533 31.1267H19.2212L17.8789 33.5429L16.5579 31.1267ZM22.0465 40.1267H23.5891V36.6409H23.6531C23.896 37.1181 24.4031 37.7872 25.5281 37.7872C27.0707 37.7872 28.2255 36.5642 28.2255 34.4079C28.2255 32.2261 27.0366 31.0414 25.5238 31.0414C24.369 31.0414 23.8874 31.736 23.6531 32.2091H23.5636V31.1267H22.0465V40.1267ZM23.5593 34.3994C23.5593 33.1295 24.1048 32.3071 25.0977 32.3071C26.1246 32.3071 26.6531 33.1806 26.6531 34.3994C26.6531 35.6267 26.1161 36.5216 25.0977 36.5216C24.1133 36.5216 23.5593 35.6693 23.5593 34.3994ZM31.0891 28.9448H29.5465V37.6721H31.0891V28.9448ZM35.5305 37.8C37.4482 37.8 38.6669 36.4491 38.6669 34.425C38.6669 32.3966 37.4482 31.0414 35.5305 31.0414C33.6129 31.0414 32.3942 32.3966 32.3942 34.425C32.3942 36.4491 33.6129 37.8 35.5305 37.8ZM35.5391 36.5642C34.478 36.5642 33.9581 35.6181 33.9581 34.4207C33.9581 33.2233 34.478 32.2644 35.5391 32.2644C36.5831 32.2644 37.103 33.2233 37.103 34.4207C37.103 35.6181 36.5831 36.5642 35.5391 36.5642ZM39.9762 37.6721H41.5188V33.8241C41.5188 32.9931 42.1452 32.4051 42.9933 32.4051C43.2532 32.4051 43.5771 32.4519 43.7092 32.4946V31.0755C43.5685 31.05 43.3256 31.0329 43.1552 31.0329C42.4052 31.0329 41.7788 31.4591 41.5401 32.2176H41.4719V31.1267H39.9762V37.6721ZM47.3622 37.8C48.8878 37.8 49.9361 37.0542 50.2088 35.9164L48.7685 35.7545C48.5597 36.3085 48.0483 36.5983 47.3835 36.5983C46.3864 36.5983 45.7259 35.942 45.7131 34.8213H50.2727V34.3483C50.2727 32.0514 48.892 31.0414 47.2812 31.0414C45.4062 31.0414 44.1832 32.4179 44.1832 34.4377C44.1832 36.4917 45.3892 37.8 47.3622 37.8ZM45.7173 33.7815C45.7642 32.9463 46.3821 32.2431 47.3026 32.2431C48.1889 32.2431 48.7855 32.8909 48.794 33.7815H45.7173Z" fill="#FF6C8F"/>
<defs>
<clipPath id="clip0">
<rect width="23.7705" height="23.7705" fill="white" transform="translate(17.1147)"/>
</clipPath>
</defs>
</svg>
