<svg width="58" height="41" viewBox="0 0 58 41" fill="none" xmlns="http://www.w3.org/2000/svg">
<g opacity="0.6">
<g clip-path="url(#clip0)">
<path d="M29 22.582C34.9076 22.582 39.6967 17.7929 39.6967 11.8853C39.6967 5.97762 34.9076 1.18854 29 1.18854C23.0924 1.18854 18.3033 5.97762 18.3033 11.8853C18.3033 17.7929 23.0924 22.582 29 22.582Z" stroke="#FF6C8F" stroke-width="2" stroke-linecap="round" stroke-linejoin="round"/>
<path d="M18.3033 11.8853H39.6967" stroke="#FF6C8F" stroke-width="2" stroke-linecap="round" stroke-linejoin="round"/>
<path d="M29 1.18854C31.6756 4.11768 33.1961 7.91895 33.2787 11.8853C33.1961 15.8516 31.6756 19.6528 29 22.582C26.3245 19.6528 24.8039 15.8516 24.7213 11.8853C24.8039 7.91895 26.3245 4.11768 29 1.18854V1.18854Z" stroke="#FF6C8F" stroke-width="2" stroke-linecap="round" stroke-linejoin="round"/>
</g>
<path d="M8.94549 37.6721H14.2807V36.7346H10.0023V33.7687H13.9398V32.8312H10.0023V29.8823H14.2125V28.9448H8.94549V37.6721ZM16.731 31.1267H15.5719L17.6515 34.3994L15.5719 37.6721H16.731L18.2992 35.1323L19.8674 37.6721H21.0265L18.9128 34.3994L21.0265 31.1267H19.8674L18.2992 33.8028L16.731 31.1267ZM22.4615 40.1267H23.4672V36.6664H23.5524C23.774 37.0244 24.2001 37.8085 25.4615 37.8085C27.0978 37.8085 28.2399 36.496 28.2399 34.4164C28.2399 32.3539 27.0978 31.0414 25.4444 31.0414C24.166 31.0414 23.774 31.8255 23.5524 32.1664H23.4331V31.1267H22.4615V40.1267ZM23.4501 34.3994C23.4501 32.9335 24.0978 31.9448 25.3251 31.9448C26.6035 31.9448 27.2342 33.0187 27.2342 34.3994C27.2342 35.7971 26.5865 36.9051 25.3251 36.9051C24.1149 36.9051 23.4501 35.8823 23.4501 34.3994ZM30.7797 28.9448H29.774V37.6721H30.7797V28.9448ZM35.2807 37.8085C37.0534 37.8085 38.2466 36.4619 38.2466 34.4335C38.2466 32.388 37.0534 31.0414 35.2807 31.0414C33.508 31.0414 32.3148 32.388 32.3148 34.4335C32.3148 36.4619 33.508 37.8085 35.2807 37.8085ZM35.2807 36.9051C33.9341 36.9051 33.3205 35.746 33.3205 34.4335C33.3205 33.121 33.9341 31.9448 35.2807 31.9448C36.6273 31.9448 37.2409 33.121 37.2409 34.4335C37.2409 35.746 36.6273 36.9051 35.2807 36.9051ZM39.7818 37.6721H40.7875V33.5301C40.7875 32.6437 41.4863 31.996 42.4409 31.996C42.7093 31.996 42.9863 32.0471 43.0545 32.0642V31.0414C42.9395 31.0329 42.6752 31.0244 42.5261 31.0244C41.742 31.0244 41.0602 31.4676 40.8216 32.1153H40.7534V31.1267H39.7818V37.6721ZM46.7917 37.8085C48.1213 37.8085 49.0929 37.1437 49.3997 36.1551L48.4281 35.8823C48.1724 36.5642 47.5801 36.9051 46.7917 36.9051C45.6113 36.9051 44.7974 36.1423 44.7505 34.7403H49.502V34.3142C49.502 31.8767 48.0531 31.0414 46.6895 31.0414C44.9167 31.0414 43.7406 32.4392 43.7406 34.4505C43.7406 36.4619 44.8997 37.8085 46.7917 37.8085ZM44.7505 33.871C44.8187 32.8525 45.5389 31.9448 46.6895 31.9448C47.7804 31.9448 48.4792 32.763 48.4792 33.871H44.7505Z" fill="#FF6C8F"/>
</g>
<defs>
<clipPath id="clip0">
<rect width="23.7705" height="23.7705" fill="white" transform="translate(17.1147)"/>
</clipPath>
</defs>
</svg>
