<svg width="24" height="24" viewBox="0 0 24 24" fill="none" xmlns="http://www.w3.org/2000/svg">
<mask id="path-1-inside-1" fill="white">
<path fill-rule="evenodd" clip-rule="evenodd" d="M13.1027 2.69607C14.1724 2.17246 15.1056 2 16.5532 2.00002C20.258 2.01536 23 5.13984 23 9.11988C23 12.1578 21.3062 15.0923 18.1512 17.9299C16.4951 19.4193 14.3807 20.8933 12.8664 21.6775L12 22.1261L11.1336 21.6775C9.61932 20.8933 7.50489 19.4193 5.84884 17.9299C2.69383 15.0923 1 12.1578 1 9.11988C1 5.09727 3.71644 2 7.45455 2C8.85028 2 9.83132 2.18878 10.9218 2.72813C11.3015 2.91592 11.6582 3.13866 11.99 3.39576C12.335 3.12339 12.7066 2.88993 13.1027 2.69607Z"/>
</mask>
<path d="M13.1027 2.69607L12.2234 0.899719L12.2234 0.899719L13.1027 2.69607ZM16.5532 2.00002L16.5615 1.62026e-05L16.5533 1.6102e-05L16.5532 2.00002ZM18.1512 17.9299L19.4886 19.4169L18.1512 17.9299ZM12.8664 21.6775L11.9467 19.9015L11.9467 19.9015L12.8664 21.6775ZM12 22.1261L11.0803 23.9021L12 24.3784L12.9197 23.9021L12 22.1261ZM11.1336 21.6775L12.0533 19.9015L12.0533 19.9015L11.1336 21.6775ZM5.84884 17.9299L4.5114 19.4169L5.84884 17.9299ZM10.9218 2.72813L11.8085 0.935425L11.8085 0.935425L10.9218 2.72813ZM11.99 3.39576L10.7649 4.97666L12.0013 5.93476L13.2291 4.96565L11.99 3.39576ZM13.9819 4.49243C14.7047 4.13865 15.3167 4 16.5532 4.00002L16.5533 1.6102e-05C14.8944 -4.11127e-06 13.6401 0.206274 12.2234 0.899719L13.9819 4.49243ZM16.545 4C18.9572 4.00999 21 6.0397 21 9.11988H25C25 4.23999 21.5587 0.0207281 16.5615 3.32517e-05L16.545 4ZM21 9.11988C21 11.3567 19.7595 13.7934 16.8137 16.4429L19.4886 19.4169C22.8528 16.3911 25 12.9588 25 9.11988H21ZM16.8137 16.4429C15.2646 17.8361 13.2884 19.2067 11.9467 19.9015L13.7861 23.4535C15.4729 22.58 17.7256 21.0026 19.4886 19.4169L16.8137 16.4429ZM11.9467 19.9015L11.0803 20.3501L12.9197 23.9021L13.7861 23.4535L11.9467 19.9015ZM12.9197 20.3501L12.0533 19.9015L10.2139 23.4535L11.0803 23.9021L12.9197 20.3501ZM12.0533 19.9015C10.7116 19.2067 8.73538 17.8361 7.18628 16.4429L4.5114 19.4169C6.27441 21.0026 8.52709 22.58 10.2139 23.4535L12.0533 19.9015ZM7.18628 16.4429C4.2405 13.7934 3 11.3567 3 9.11988H-1C-1 12.9588 1.14716 16.3911 4.5114 19.4169L7.18628 16.4429ZM3 9.11988C3 5.99316 5.01872 4 7.45455 4V0C2.41415 0 -1 4.20137 -1 9.11988H3ZM7.45455 4C8.61903 4 9.28143 4.14806 10.0351 4.52084L11.8085 0.935425C10.3812 0.229492 9.08153 0 7.45455 0V4ZM10.0351 4.52084C10.2971 4.65041 10.5402 4.80254 10.7649 4.97666L13.215 1.81486C12.7762 1.47478 12.3059 1.18142 11.8085 0.935425L10.0351 4.52084ZM13.2291 4.96565C13.4617 4.78206 13.7125 4.62431 13.9819 4.49243L12.2234 0.899719C11.7007 1.15555 11.2084 1.46472 10.7508 1.82587L13.2291 4.96565Z" fill="black" mask="url(#path-1-inside-1)"/>
</svg>
