<svg width="56" height="56" viewBox="0 0 56 56" fill="none" xmlns="http://www.w3.org/2000/svg">
<g id="24 / basic / settings">
<g id="Rectangle 240" filter="url(#filter0_d)">
<rect x="10" y="10" width="36" height="36" rx="18" fill="white"/>
</g>
<path id="icon" fill-rule="evenodd" clip-rule="evenodd" d="M36.4715 39.3235L39.2933 36.5016L38.2995 32.8911L38.7325 31.857L42 30.0132V26.0228L38.7418 24.1713L38.316 23.139L39.3224 19.5266L36.4985 16.7069L32.8876 17.7004L31.8559 17.2678L30.0119 14H26.0215L24.17 17.2582L23.138 17.6839L19.5262 16.6763L16.7067 19.4957L17.7004 23.1072L17.2678 24.139L14 25.9829V29.9722L17.2553 31.8278L17.6814 32.861L16.6752 36.4728L19.4957 39.2933L23.1072 38.2996L24.1391 38.7322L25.9831 41.9987H29.9725L31.8268 38.7433L32.8597 38.3173L36.4715 39.3235ZM36.7216 30.0689L35.612 32.719L36.4461 35.7491L35.7227 36.4725L32.699 35.6302L30.0478 36.7236L28.493 39.4532H27.4692L25.9273 36.7218L23.2802 35.6119L20.2484 36.4461L19.5262 35.7239L20.3686 32.7002L19.2752 30.0493L16.5455 28.4932V27.4693L19.2781 25.9274L20.3881 23.2801L19.5539 20.2484L20.2746 19.5277L23.2983 20.3712L25.9504 19.2774L27.5028 16.5454H28.5256L30.0675 19.2781L32.7147 20.3881L35.7471 19.5537L36.4711 20.2766L35.6289 23.2998L36.7226 25.9516L39.4546 27.504V28.5268L36.7216 30.0689ZM28 33.0909C25.1883 33.0909 22.909 30.8116 22.909 28C22.909 25.1884 25.1883 22.9091 28 22.9091C30.8116 22.9091 33.0909 25.1884 33.0909 28C33.0909 30.8116 30.8116 33.0909 28 33.0909ZM30.5454 28C30.5454 29.4058 29.4058 30.5455 28 30.5455C26.5942 30.5455 25.4545 29.4058 25.4545 28C25.4545 26.5942 26.5942 25.4546 28 25.4546C29.4058 25.4546 30.5454 26.5942 30.5454 28Z" fill="#FFB277"/>
</g>
<defs>
<filter id="filter0_d" x="0" y="0" width="56" height="56" filterUnits="userSpaceOnUse" color-interpolation-filters="sRGB">
<feFlood flood-opacity="0" result="BackgroundImageFix"/>
<feColorMatrix in="SourceAlpha" type="matrix" values="0 0 0 0 0 0 0 0 0 0 0 0 0 0 0 0 0 0 127 0"/>
<feMorphology radius="5" operator="erode" in="SourceAlpha" result="effect1_dropShadow"/>
<feOffset/>
<feGaussianBlur stdDeviation="7.5"/>
<feColorMatrix type="matrix" values="0 0 0 0 0 0 0 0 0 0 0 0 0 0 0 0 0 0 0.25 0"/>
<feBlend mode="normal" in2="BackgroundImageFix" result="effect1_dropShadow"/>
<feBlend mode="normal" in="SourceGraphic" in2="effect1_dropShadow" result="shape"/>
</filter>
</defs>
</svg>
