<svg width="58" height="39" viewBox="0 0 58 39" fill="none" xmlns="http://www.w3.org/2000/svg">
<g clip-path="url(#clip0)">
<path d="M29.2927 0.999939L29.2929 0.999939C31.8523 0.999348 33.9261 3.07395 33.9261 5.63333C33.9261 8.19314 31.8511 10.2674 29.2927 10.2674C26.7351 10.2674 24.66 8.19322 24.66 5.63333C24.66 3.07488 26.7351 0.999939 29.2927 0.999939ZM22.8931 22.7704C22.0044 22.7704 21.2842 22.0502 21.2842 21.1614V19.6902C21.2842 17.0992 23.4033 15.0036 26.0131 15.0036H32.573C35.179 15.0036 37.2818 17.0933 37.2818 19.6902V21.1614C37.2818 22.0504 36.5614 22.7704 35.6736 22.7704H22.8931Z" stroke="#FF6C8F" stroke-width="2"/>
</g>
<path d="M11.1577 37.6721H12.7386V34.7233H14.4091C16.4247 34.7233 17.5071 33.513 17.5071 31.8341C17.5071 30.1679 16.4375 28.9448 14.4304 28.9448H11.1577V37.6721ZM12.7386 33.4235V30.2659H14.1875C15.3722 30.2659 15.8963 30.9051 15.8963 31.8341C15.8963 32.763 15.3722 33.4235 14.196 33.4235H12.7386ZM18.8121 37.6721H20.3548V33.8241C20.3548 32.9931 20.9812 32.4051 21.8292 32.4051C22.0891 32.4051 22.413 32.4519 22.5451 32.4946V31.0755C22.4045 31.05 22.1616 31.0329 21.9911 31.0329C21.2411 31.0329 20.6147 31.4591 20.3761 32.2176H20.3079V31.1267H18.8121V37.6721ZM26.1555 37.8C28.0732 37.8 29.2919 36.4491 29.2919 34.425C29.2919 32.3966 28.0732 31.0414 26.1555 31.0414C24.2379 31.0414 23.0192 32.3966 23.0192 34.425C23.0192 36.4491 24.2379 37.8 26.1555 37.8ZM26.1641 36.5642C25.103 36.5642 24.5831 35.6181 24.5831 34.4207C24.5831 33.2233 25.103 32.2644 26.1641 32.2644C27.2081 32.2644 27.728 33.2233 27.728 34.4207C27.728 35.6181 27.2081 36.5642 26.1641 36.5642ZM33.9165 31.1267H32.5572V30.611C32.5572 30.0997 32.7702 29.8142 33.3455 29.8142C33.5884 29.8142 33.793 29.8696 33.9208 29.9079L34.2319 28.7147C34.0316 28.6466 33.5927 28.5358 33.06 28.5358C31.9222 28.5358 31.0146 29.1877 31.0146 30.5088V31.1267H30.0472V32.3198H31.0146V37.6721H32.5572V32.3198H33.9165V31.1267ZM35.1246 37.6721H36.6673V31.1267H35.1246V37.6721ZM35.9002 30.1977C36.3903 30.1977 36.7908 29.8227 36.7908 29.3625C36.7908 28.898 36.3903 28.523 35.9002 28.523C35.4059 28.523 35.0053 28.898 35.0053 29.3625C35.0053 29.8227 35.4059 30.1977 35.9002 30.1977ZM39.7962 28.9448H38.2536V37.6721H39.7962V28.9448ZM44.2802 37.8C45.8058 37.8 46.854 37.0542 47.1268 35.9164L45.6864 35.7545C45.4776 36.3085 44.9663 36.5983 44.3015 36.5983C43.3043 36.5983 42.6438 35.942 42.631 34.8213H47.1907V34.3483C47.1907 32.0514 45.81 31.0414 44.1992 31.0414C42.3242 31.0414 41.1012 32.4179 41.1012 34.4377C41.1012 36.4917 42.3072 37.8 44.2802 37.8ZM42.6353 33.7815C42.6822 32.9463 43.3001 32.2431 44.2205 32.2431C45.1069 32.2431 45.7035 32.8909 45.712 33.7815H42.6353Z" fill="#FF6C8F"/>
<defs>
<clipPath id="clip0">
<rect width="23.7705" height="23.7705" fill="white" transform="translate(17.1148)"/>
</clipPath>
</defs>
</svg>
